<?xml version="1.0" encoding="iso-8859-1"?>
<!-- Generator: Adobe Illustrator 19.0.0, SVG Export Plug-In . SVG Version: 6.00 Build 0)  -->
<svg xmlns="http://www.w3.org/2000/svg" xmlns:xlink="http://www.w3.org/1999/xlink" version="1.1" id="Capa_1" x="0px" y="0px" viewBox="0 0 512.02 512.02" style="enable-background:new 0 0 512.02 512.02;" xml:space="preserve" width="512px" height="512px">
<g>
	<g>
		<g>
			<path d="M510.218,196.77c-27.339-41.008-58.383-57.47-86.146-64.147c36.556-25.029,40.6-72.754,43.063-101.78     c0.583-7.135,1.083-13.375,2.021-18.115c1.042-5.375-2.146-10.667-7.396-12.25c-5.208-1.594-10.833,1.052-12.938,6.115     c-22.299,53.62-76.62,73.69-107.91,77.663c-20.297-13.273-45.09-20.236-74.236-20.236h-21.333     c-29.146,0-53.939,6.962-74.236,20.236c-31.29-3.973-85.611-24.043-107.91-77.663c-2.104-5.063-7.729-7.75-12.938-6.115     c-5.25,1.583-8.438,6.875-7.396,12.25c0.938,4.74,1.438,10.979,2.021,18.115c2.462,29.031,6.507,76.768,43.081,101.794     c-27.788,6.686-58.844,23.154-86.164,64.133c-1.688,2.542-2.229,5.698-1.438,8.656c0.792,2.958,2.813,5.438,5.542,6.802     c1.733,0.866,41.245,19.934,101.07,22.051c-0.104,3.688-0.299,7.276-0.299,11.074c0,17.792,8.292,30.75,16.313,43.271     c8.062,12.604,15.687,24.51,15.687,42.063v43.874c-7.004,11.419-10.667,25.245-10.667,41.46c0,16.755,7.012,42.99,47.871,50.919     c2.715,2.846,5.383,5.729,7.941,8.643c15.083,17.073,32.167,36.438,72.188,36.438s57.104-19.365,72.188-36.438     c2.559-2.914,5.227-5.797,7.941-8.643c40.859-7.93,47.871-34.164,47.871-50.919c0-16.215-3.663-30.04-10.667-41.46v-43.874     c0-17.552,7.625-29.458,15.688-42.063c8.021-12.521,16.313-25.479,16.313-43.271c0-3.798-0.195-7.387-0.299-11.074     c59.826-2.117,99.337-21.185,101.07-22.051c2.729-1.365,4.75-3.844,5.542-6.802C512.447,202.468,511.906,199.311,510.218,196.77z      M256.01,128.02c5.891,0,10.667,4.775,10.667,10.667c0,5.891-4.776,10.667-10.667,10.667s-10.667-4.776-10.667-10.667     C245.343,132.795,250.119,128.02,256.01,128.02z M256.01,170.686c11.771,0,21.333,9.573,21.333,21.333     c0,11.76-9.563,21.333-21.333,21.333s-21.333-9.573-21.333-21.333C234.677,180.259,244.239,170.686,256.01,170.686z      M266.677,245.353c0,5.891-4.776,10.667-10.667,10.667s-10.667-4.776-10.667-10.667c0-5.892,4.776-10.667,10.667-10.667     S266.677,239.461,266.677,245.353z M170.677,224.02c2,0,12.333,0.271,20.25,5.563l0.021,0.01     c5.854,3.948,9.313,8.896,9.938,9.854c2.188,3.271,2.375,7.479,0.521,10.948c-1.854,3.458-5.458,5.625-9.396,5.625h-32     c-5.896,0-10.667-4.771-10.667-10.667C149.343,231.999,157.322,224.02,170.677,224.02z M132.446,126.321     c-43.712-6.147-57.656-35.324-63.353-71.436c24.087,26.26,55.525,40.549,81.021,47.088     C143.477,109.11,137.595,117.248,132.446,126.321z M309.343,448.02c-7.917,0-12.625-3.469-19.146-8.26     c-7.917-5.823-17.75-13.073-34.188-13.073s-26.271,7.25-34.188,13.073c-6.521,4.792-11.229,8.26-19.146,8.26     c-35.396,0-53.333-10.771-53.333-32c0-16.458,4.604-29.333,13.667-38.281c15.333-15.146,38.375-15.208,39.667-15.052h106.667     c0.042,0,0.125,0,0.188,0c0.25,0,24.021-0.198,39.479,15.052c9.063,8.948,13.667,21.823,13.667,38.281     C362.677,437.249,344.739,448.02,309.343,448.02z M352.01,256.02h-32c-3.938,0-7.542-2.167-9.396-5.625     c-1.854-3.469-1.667-7.677,0.521-10.948c0.625-0.958,4.083-5.906,9.938-9.854l0.021-0.01c7.917-5.292,18.25-5.563,20.25-5.563     c13.354,0,21.333,7.979,21.333,21.333C362.677,251.249,357.906,256.02,352.01,256.02z M379.574,126.321     c-5.148-9.073-11.031-17.211-17.668-24.348c25.496-6.539,56.934-20.828,81.021-47.088     C437.23,90.996,423.286,120.173,379.574,126.321z" fill="#46866C"/>
			<path d="M181.343,384.02c-5.896,0-10.667,4.771-10.667,10.667s4.771,10.667,10.667,10.667c4.167,0,9.271,8.292,11.208,13.99     c1.458,4.5,5.646,7.344,10.125,7.344c1.104,0,2.229-0.167,3.333-0.531c5.583-1.833,8.646-7.865,6.792-13.458     C211.843,409.759,202.781,384.02,181.343,384.02z" fill="#46866C"/>
			<path d="M330.677,384.02c-21.438,0-30.5,25.74-31.458,28.677c-1.854,5.594,1.208,11.625,6.792,13.458     c1.104,0.365,2.229,0.531,3.333,0.531c4.479,0,8.667-2.844,10.125-7.344c1.667-5.021,6.813-13.99,11.208-13.99     c5.896,0,10.667-4.771,10.667-10.667S336.572,384.02,330.677,384.02z" fill="#46866C"/>
		</g>
	</g>
</g>
<g>
</g>
<g>
</g>
<g>
</g>
<g>
</g>
<g>
</g>
<g>
</g>
<g>
</g>
<g>
</g>
<g>
</g>
<g>
</g>
<g>
</g>
<g>
</g>
<g>
</g>
<g>
</g>
<g>
</g>
</svg>
