<?xml version="1.0"?>
<svg xmlns="http://www.w3.org/2000/svg" id="Capa_1" enable-background="new 0 0 512 512" height="512px" viewBox="0 0 512 512" width="512px"><path d="m331 390v-60.962c-21.896 13.293-47.566 20.962-75 20.962-27.433 0-53.104-7.67-75-20.962v60.962z" fill="#EEC344"/><path d="m136 390h15v-70h-15c-52.383 0-95 42.617-95 95v82c0 8.284 6.716 15 15 15h65v-107c0-8.284 6.716-15 15-15z" fill="#EEC344"/><path d="m151 420v92h210v-92h-15-180z" fill="#EEC344"/><path d="m376 320h-15v70h15c8.284 0 15 6.716 15 15v107h65c8.284 0 15-6.716 15-15v-82c0-52.383-42.617-95-95-95z" fill="#EEC344"/><path d="m456 155h-400c-8.284 0-15-6.716-15-15 0-24.853 20.147-45 45-45h340c24.853 0 45 20.147 45 45 0 8.284-6.716 15-15 15z" fill="#EEC344"/><path d="m286 0h-60c-41.904 0-77.554 27.273-90.142 65h240.285c-12.589-37.727-48.239-65-90.143-65z" fill="#EEC344"/><path d="m141 205c0 63.411 51.589 115 115 115s115-51.589 115-115v-20h-230z" fill="#EEC344"/></svg>
