<?xml version="1.0"?>
<svg xmlns="http://www.w3.org/2000/svg" height="512px" viewBox="0 0 512 512.00079" width="512px"><path d="m163.175781 202.769531c9.460938-16.4375 23.160157-30.136719 39.597657-39.597656v-157.289063c-19.238282 4.054688-37.855469 10.289063-55.535157 18.613282-33.925781-32.945313-88.308593-32.664063-121.859375.882812-33.546875 33.546875-33.828125 87.933594-.882812 121.855469-8.320313 17.683594-14.558594 36.296875-18.613282 55.535156zm-116.578125-156.171875c19.679688-19.683594 50.320313-21.863281 72.449219-6.574218-15.667969 9.980468-30.363281 21.746093-43.820313 35.203124-13.453124 13.457032-25.222656 28.148438-35.199218 43.820313-15.292969-22.128906-13.113282-52.769531 6.570312-72.449219zm0 0" fill="#EEC344"/><path d="m202.773438 348.816406c-16.4375-9.460937-30.136719-23.160156-39.601563-39.597656h-157.289063c4.054688 19.238281 10.292969 37.851562 18.613282 55.535156-32.945313 33.921875-32.664063 88.308594.882812 121.855469 16.929688 16.929687 39.160156 25.390625 61.394532 25.390625 21.832031-.003906 43.660156-8.183594 60.464843-24.503906 17.679688 8.320312 36.296875 14.554687 55.535157 18.609375zm-156.175782 116.578125c-19.683594-19.683593-21.863281-50.320312-6.570312-72.453125 9.980468 15.671875 21.746094 30.367188 35.199218 43.820313 13.457032 13.457031 28.152344 25.222656 43.820313 35.203125-22.128906 15.289062-52.765625 13.109375-72.449219-6.570313zm0 0" fill="#EEC344"/><path d="m232.777344 151.519531c7.476562-1.660156 15.246094-2.542969 23.21875-2.542969s15.742187.882813 23.222656 2.542969v-150.121093c-7.675781-.683594-15.421875-1.050782-23.222656-1.050782-7.800782 0-15.542969.367188-23.21875 1.050782zm0 0" fill="#EEC344"/><path d="m309.222656 163.175781c16.433594 9.460938 30.132813 23.160157 39.59375 39.59375h157.289063c-4.054688-19.238281-10.289063-37.851562-18.609375-55.53125 32.945312-33.925781 32.664062-88.308593-.886719-121.859375-33.542969-33.546875-87.929687-33.828125-121.855469-.882812-17.679687-8.324219-36.292968-14.558594-55.53125-18.613282zm156.171875-116.578125c19.683594 19.679688 21.863281 50.320313 6.570313 72.449219-9.980469-15.671875-21.746094-30.363281-35.199219-43.820313-13.457031-13.457031-28.152344-25.222656-43.820313-35.203124 22.128907-15.289063 52.765626-13.109376 72.449219 6.574218zm0 0" fill="#EEC344"/><path d="m279.21875 360.46875c-7.480469 1.660156-15.25 2.546875-23.222656 2.546875s-15.742188-.886719-23.21875-2.546875v150.121094c7.675781.6875 15.417968 1.050781 23.21875 1.050781 7.800781 0 15.542968-.363281 23.222656-1.050781zm0 0" fill="#EEC344"/><path d="m151.519531 279.214844c-1.660156-7.480469-2.542969-15.246094-2.542969-23.21875s.882813-15.742188 2.542969-23.222656h-150.117187c-.6875 7.675781-1.054688 15.421874-1.054688 23.222656 0 7.800781.367188 15.542968 1.054688 23.21875zm0 0" fill="#EEC344"/><path d="m348.816406 309.21875c-9.460937 16.4375-23.160156 30.136719-39.59375 39.597656v157.289063c19.238282-4.054688 37.851563-10.289063 55.53125-18.609375 16.808594 16.320312 38.628906 24.503906 60.464844 24.503906 22.230469 0 44.464844-8.460938 61.390625-25.390625 33.550781-33.546875 33.832031-87.933594.886719-121.855469 8.320312-17.679687 14.554687-36.296875 18.609375-55.53125h-157.289063zm116.578125 156.175781c-19.683593 19.679688-50.324219 21.859375-72.449219 6.570313 15.667969-9.980469 30.363282-21.746094 43.820313-35.203125 13.453125-13.453125 25.222656-28.148438 35.199219-43.820313 15.292968 22.128906 13.113281 52.769532-6.570313 72.453125zm0 0" fill="#EEC344"/><path d="m360.46875 232.773438c1.664062 7.480468 2.546875 15.25 2.546875 23.222656s-.882813 15.738281-2.546875 23.21875h150.121094c.6875-7.675782 1.050781-15.417969 1.050781-23.21875 0-7.800782-.363281-15.546875-1.050781-23.222656zm0 0" fill="#EEC344"/></svg>
