<?xml version="1.0"?>
<svg xmlns="http://www.w3.org/2000/svg" id="_x33_0" enable-background="new 0 0 64 64" height="512px" viewBox="0 0 64 64" width="512px"><path d="m14.472 11.744c.79 2.104 1.279 4.31 1.455 6.555.097 1.238-.108 2.51-.593 3.678l-.644 1.553c-.307.741-.818 1.352-1.451 1.781l3.761 8.272 3.76-8.272c-.633-.429-1.144-1.04-1.451-1.781l-.644-1.554c-.484-1.168-.689-2.439-.593-3.678.176-2.245.665-4.451 1.455-6.556l1.184-3.157c.192-.509.289-1.042.289-1.585 0-2.206-1.794-4-4-4s-4 1.794-4 4c0 .543.097 1.076.288 1.585zm2.528-5.744c.552 0 1 .448 1 1s-.448 1-1 1-1-.448-1-1 .448-1 1-1z" fill="#EEC344"/><path d="m12.489 28.493-1.145-2.519c-.116.01-.231.026-.349.026-2.203 0-3.995 1.792-3.995 3.995v2.971c1.691-2.526 4.051-3.854 5.489-4.473z" fill="#EEC344"/><path d="m20.691 30.297-3.691 8.12-3.691-8.12c-1.96.804-6.309 3.303-6.309 9.703v3.942c0 5.979 2.887 11.648 7.723 15.165l2.277 1.657 2.277-1.656c4.836-3.517 7.723-9.186 7.723-15.166v-3.942c0-6.4-4.349-8.899-6.309-9.703z" fill="#EEC344"/><path d="m23.005 26c-.118 0-.233-.016-.349-.026l-1.145 2.519c1.438.62 3.798 1.947 5.489 4.474v-2.971c0-2.204-1.792-3.996-3.995-3.996z" fill="#EEC344"/><path d="m46 36c-6.054 0-11.976 3.576-11.998 7.975-.001 5.4-.002 11.49-.002 15.031 0 1.656 1.343 2.994 3 2.994.552 0 1-.448 1-1v-14c0-1.657 1.343-3 3-3s3 1.337 3 2.994v14.011c0 .552.448.995 1 .995h2c.552 0 1-.448 1-1v-14c0-1.657 1.343-3 3-3s3 1.343 3 3v14c0 .552.448 1 1 1 1.657 0 3-1.343 3-3v-15c0-4.411-5.935-8-12-8z" fill="#EEC344"/><path d="m53.157 30.848c-2.528-1.124-4.157-3.631-4.157-6.397v-7.798c0-1.087.253-2.159.739-3.13.829-1.66 1.261-3.488 1.261-5.343v-1.18c0-2.761-2.239-5-5-5s-5 2.239-5 5v1.18c0 1.854.432 3.683 1.261 5.342.486.972.739 2.044.738 3.13l-.005 7.812c-.002 2.761-1.628 5.262-4.151 6.383-2.941 1.307-4.837 4.218-4.839 7.437v.729c2.546-2.991 7.19-5.013 11.996-5.013 4.808 0 9.455 2.024 12 5.017v-.717c0-3.223-1.898-6.144-4.843-7.452zm-7.157-22.848c-.552 0-1-.448-1-1s.448-1 1-1 1 .448 1 1-.448 1-1 1z" fill="#EEC344"/></svg>
