<?xml version="1.0"?>
<svg xmlns="http://www.w3.org/2000/svg" height="512px" viewBox="0 0 56 56" width="512px"><g id="014---Self-Driving-Tractor"><path id="Shape" d="m27.7 40h3.3v-9c0-2.209139 1.790861-4 4-4h9v-7c0-1.6568542 1.3431458-3 3-3h4c0-1.6568542-1.3431458-3-3-3h-9v2c0 3.3137085-2.6862915 6-6 6h-12c-3.3137085 0-6-2.6862915-6-6v-2h-7c-1.55 0-3 2.25-3 4v12.33c4.16455792-2.6284946 9.3540499-3.0453397 13.884772-1.115292 4.530722 1.9300477 7.8254506 5.961096 8.815228 10.785292z" fill="#46866C"/><path id="Shape" d="m13 56c7.1797017 0 13-5.8202983 13-13s-5.8202983-13-13-13c-7.17970175 0-13 5.8202983-13 13s5.82029825 13 13 13zm-1-23c.3572656-.0357266.7064525.1218596.9160254.4133974.209573.2915378.2476927.6727357.1 1.0000001-.1476927.3272643-.4587598.550876-.8160254.5866025-3.73025099.369112-6.70403744 3.2788155-7.15431209 7.0001417-.45027466 3.7213262 1.74371323 7.2563223 5.27827879 8.5044658 3.5345656 1.2481434 7.4618398-.1252819 9.4482055-3.304176 1.9863656-3.1788941 1.4991364-7.3107687-1.1721722-9.9404315-.1893127-.1877666-.2957983-.4433625-.2957983-.71s.1064856-.5222334.2957983-.71c.3900375-.3877236 1.0199625-.3877236 1.41 0 3.3413867 3.2850357 3.953676 8.4497205 1.4730194 12.4249774s-7.3889668 5.6949538-11.8082025 4.1371732c-4.4192357-1.5577805-7.16419322-5.9752544-6.60370123-10.6273693s4.27611402-8.2912109 8.93888433-8.7547813z" fill="#46866C"/><path id="Shape" d="m10 1v11h2v-11c0-.55228475-.4477153-1-1-1s-1 .44771525-1 1z" fill="#46866C"/><path id="Shape" d="m47 38c-3.6401602 0-6.9218868 2.1927796-8.3149158 5.5558491s-.6230272 7.23413 1.9509548 9.8081119c2.5739819 2.573982 6.4450424 3.3439838 9.8081119 1.9509548s5.5558491-4.6747556 5.5558491-8.3149158c0-4.9705627-4.0294373-9-9-9zm0 15c-3.3137085 0-6-2.6862915-6-6s2.6862915-6 6-6c.5522847 0 1 .4477153 1 1s-.4477153 1-1 1c-2.209139 0-4 1.790861-4 4s1.790861 4 4 4 4-1.790861 4-4c0-.5522847.4477153-1 1-1s1 .4477153 1 1c0 3.3137085-2.6862915 6-6 6z" fill="#46866C"/><path id="Shape" d="m49.57 30.18 1.43 1v-12.18h-4c-.5522847 0-1 .4477153-1 1v3.38l2.57 1.8c.3577534.2497108.5123265.7025328.3819337 1.1188748-.1303929.416342-.5156518.7000958-.9519337.7011252-.41 0-.48-.12-2-1.18v10.23c1.699175-.1543012 3.4109503.0887709 5 .71v-3.14l-2.57-1.8c-.3140985-.1949429-.4950264-.5472678-.4704546-.9161266s.2506345-.6940717.5878153-.8456291c.3371809-.1515574.7304686-.1047325 1.0226393.1217557z" fill="#46866C"/><path id="Shape" d="m21 20h12c2.209139 0 4-1.790861 4-4v-2h-20v2c0 2.209139 1.790861 4 4 4zm1-4h10c.5522847 0 1 .4477153 1 1s-.4477153 1-1 1h-10c-.5522847 0-1-.4477153-1-1s.4477153-1 1-1z" fill="#46866C"/><path id="Shape" d="m46 12v-4h4c.5522847 0 1-.44771525 1-1s-.4477153-1-1-1h-4v-1c0-.55228475-.4477153-1-1-1s-1 .44771525-1 1v1h-4c-.5522847 0-1 .44771525-1 1s.4477153 1 1 1h4v4z" fill="#46866C"/><path id="Shape" d="m37 32h7v-3h-9c-1.1045695 0-2 .8954305-2 2v9h5.52c1.4198996-1.720954 3.3320364-2.9666343 5.48-3.57v-2.43h-7c-.5522847 0-1-.4477153-1-1s.4477153-1 1-1z" fill="#46866C"/></g></svg>
