<?xml version="1.0" encoding="iso-8859-1"?>
<!-- Generator: Adobe Illustrator 16.0.0, SVG Export Plug-In . SVG Version: 6.00 Build 0)  -->
<!DOCTYPE svg PUBLIC "-//W3C//DTD SVG 1.1//EN" "http://www.w3.org/Graphics/SVG/1.1/DTD/svg11.dtd">
<svg xmlns="http://www.w3.org/2000/svg" xmlns:xlink="http://www.w3.org/1999/xlink" version="1.1" id="Capa_1" x="0px" y="0px" width="512px" height="512px" viewBox="0 0 538.27 538.271" style="enable-background:new 0 0 538.27 538.271;" xml:space="preserve">
<g>
	<path d="M101.58,279.827C45.569,279.827,0,325.399,0,381.41s45.569,101.582,101.58,101.582   c56.016,0,101.582-45.571,101.582-101.582S157.596,279.827,101.58,279.827z M101.58,447.96c-36.697,0-66.549-29.855-66.549-66.55   s29.852-66.544,66.549-66.544c36.703,0,66.555,29.85,66.555,66.544S138.289,447.96,101.58,447.96z M395.986,325.991   c-42.747,0-77.525,34.778-77.525,77.52c0,42.752,34.778,77.525,77.525,77.525s77.525-34.762,77.525-77.525   C473.511,360.77,438.745,325.991,395.986,325.991z M395.986,450.329c-25.818,0-46.813-21.012-46.813-46.818   c0-25.812,21.007-46.808,46.813-46.808c25.818,0,46.825,20.995,46.825,46.808C442.811,429.317,421.804,450.329,395.986,450.329z    M214.389,373.466h96.742c-4.428,10.675-6.904,22.354-6.916,34.619l-92.246,0.06c1.838-8.032,2.899-16.355,2.899-24.955   C214.874,379.909,214.667,376.693,214.389,373.466z M534.717,290.521c0-7.867-6.401-14.257-14.263-14.257l-179.421-39.206   l-58.7-171.049c-1.613-6.307-7.306-10.731-13.816-10.731H78.04c-7.879,0-14.254,6.392-14.254,14.253   c0,7.882,6.38,14.254,14.254,14.254h24.146v129.75c-4.823-0.902-9.777-1.427-14.86-1.427c-44.286,0-80.197,35.907-80.197,80.197   v27.621c19.337-33.089,55.153-55.373,96.236-55.373c55.848,0,101.963,41.097,110.097,94.661h101.057   c15.078-28.82,45.211-48.503,79.996-48.503c49.822,0,90.21,40.347,90.287,90.156l26.941-0.023   c0.525,0.059-16.775,0.172-16.243,0.172h28.514c7.867,0,14.257-6.402,14.257-14.251L534.717,290.521z M234.454,232.311   c-16.875-50.75-89.317-55.762-96.26-55.762h-7.489V83.791H257.44l53.324,148.52H234.454z" fill="#EEC344"/>
</g>
<g>
</g>
<g>
</g>
<g>
</g>
<g>
</g>
<g>
</g>
<g>
</g>
<g>
</g>
<g>
</g>
<g>
</g>
<g>
</g>
<g>
</g>
<g>
</g>
<g>
</g>
<g>
</g>
<g>
</g>
</svg>
