<?xml version="1.0"?>
<svg xmlns="http://www.w3.org/2000/svg" height="512px" viewBox="-2 0 512 512" width="512px"><path d="m471.222656 104.253906c34.214844-34.203125 36.296875-86.058594 36.367188-88.25l.527344-16.003906-16.011719.523438c-2.191407.074218-54.066407 2.15625-88.28125 36.359374-27.792969 27.78125-34.382813 67.214844-35.917969 82.210938l-16.558594 16.53125c.300782-3.15625.46875-6.359375.46875-9.617188 0-48.371093-35.207031-86.507812-36.707031-88.109374l-10.949219-11.6875-10.949218 11.6875c-1.496094 1.601562-36.707032 39.738281-36.707032 88.109374 0 32.746094 16.128906 60.785157 27.019532 75.992188l-1.640626 1.535156.738282.695313-17.417969 17.386719c.289063-3.109376.453125-6.269532.453125-9.480469 0-48.371094-35.210938-86.507813-36.707031-88.109375l-10.949219-11.6875-10.949219 11.6875c-1.5 1.601562-36.707031 39.738281-36.707031 88.109375 0 32.746093 16.128906 60.785156 27.015625 75.992187l-1.640625 1.535156.679688.636719-17.34375 17.3125c.28125-3.070312.441406-6.183593.441406-9.347656 0-48.371094-35.210938-86.507813-36.710938-88.109375l-10.945312-11.6875-10.949219 11.6875c-1.5 1.601562-36.710937 39.738281-36.710937 88.109375 0 32.746094 16.132812 60.785156 27.019531 75.988281l-1.640625 1.535156.617187.578126-110.175781 109.988281 21.199219 21.222656 110.191406-110 .453125.484375 1.535156-1.640625c15.210938 10.886719 43.261719 27.011719 76.015625 27.011719 6.050781 0 12.207031-.574219 18.417969-1.671875 15.058594 52.058593 63.167969 90.238281 120.03125 90.238281 68.886719 0 124.929688-56.023438 124.929688-124.882812 0-63.824219-48.144532-116.609376-110.035157-123.992188-15.996093-9.96875-39.953125-21.101562-67.179687-21.101562-2.949219 0-5.855469.136718-8.71875.382812l16.988281-16.960938.335937.359376 1.535157-1.640626c15.210937 10.886719 43.261719 27.007813 76.019531 27.007813 48.386719 0 86.539062-35.195313 88.140625-36.695313l11.691406-10.941406-11.691406-10.945312c-1.601563-1.5-39.753906-36.695313-88.140625-36.695313-2.90625 0-5.769531.132813-8.589844.371094l16.171875-16.144531c15.230469-1.589844 54.320313-8.277344 81.921875-35.867188zm-46.183594-46.167968c14.941407-14.9375 35.386719-21.828126 49.957032-24.980469-3.152344 14.574219-10.046875 35.003906-24.988282 49.941406-14.964843 14.960937-35.445312 21.847656-50.019531 24.992187 3.117188-14.515624 9.988281-34.898437 25.050781-49.953124zm-120.84375 14.890624c8.066407 12.472657 17.625 31.738282 17.625 53.03125 0 21.15625-9.609374 40.503907-17.691406 53.03125-8.066406-12.472656-17.621094-31.738281-17.621094-53.03125 0-21.15625 9.605469-40.503906 17.6875-53.03125zm-86.191406 238.957032 1.539063-1.644532c5.484375 3.929688 12.644531 8.53125 21.074219 12.816407-1.652344 2.753906-3.195313 5.578125-4.636719 8.460937-8.976563-2.265625-17.875-3.414062-26.585938-3.414062-2.988281 0-5.941406.136718-8.847656.390625l17.0625-17.03125zm.03125-152.828125c8.066406 12.472656 17.625 31.738281 17.625 53.03125 0 21.160156-9.609375 40.503906-17.691406 53.03125-8.066406-12.472657-17.621094-31.738281-17.621094-53.03125 0-21.15625 9.605469-40.503907 17.6875-53.03125zm-86.195312 86.183593c8.078125 12.53125 17.65625 31.851563 17.65625 52.976563 0 21.128906-9.582032 40.449219-17.652344 52.976563-8.078125-12.53125-17.660156-31.851563-17.660156-52.976563s9.585937-40.449219 17.65625-52.976563zm77.554687 148.152344c-21.132812 0-40.460937-9.578125-52.996093-17.648437 12.539062-8.074219 31.863281-17.652344 52.996093-17.652344 5.359375 0 10.871094.640625 16.496094 1.871094-1.941406 8.730469-2.976563 17.796875-2.976563 27.105469 0 1.6875.046876 3.363281.113282 5.035156-4.636719.847656-9.195313 1.289062-13.632813 1.289062zm233.378907-6.324218c0 52.324218-42.585938 94.894531-94.929688 94.894531s-94.929688-42.570313-94.929688-94.894531c0-52.324219 42.585938-94.894532 94.929688-94.894532s94.929688 42.570313 94.929688 94.894532zm-143.625-115.003907c-14.914063 6.335938-28.351563 15.484375-39.640626 26.78125-6.46875-2.902343-12.242187-6.183593-17.007812-9.257812 12.472656-8.066407 31.75-17.625 53.054688-17.625 1.207031.003906 2.402343.042969 3.59375.101562zm135.617187-68.546875c-12.476563 8.066406-31.75 17.617188-53.046875 17.617188-21.167969 0-40.519531-9.605469-53.050781-17.679688 12.476562-8.066406 31.75-17.617187 53.050781-17.617187 21.164062 0 40.515625 9.605469 53.046875 17.679687zm0 0" fill="#EEC344"/><path d="m334.597656 318.546875v16.519531c-3.9375 1.132813-7.691406 2.699219-11.207031 4.648438l-11.691406-11.6875-21.214844 21.203125 11.691406 11.6875c-1.949219 3.515625-3.511719 7.269531-4.648437 11.203125h-16.527344v29.992187h16.527344c1.136718 3.933594 2.699218 7.6875 4.648437 11.203125l-11.691406 11.6875 21.214844 21.207032 11.691406-11.691407c3.515625 1.953125 7.269531 3.515625 11.207031 4.652344v16.519531h30v-16.519531c3.9375-1.136719 7.691406-2.699219 11.207032-4.648437l11.691406 11.6875 21.214844-21.207032-11.691407-11.6875c1.949219-3.511718 3.511719-7.265625 4.648438-11.203125h16.527343v-29.988281h-16.527343c-1.136719-3.933594-2.699219-7.6875-4.648438-11.203125l11.691407-11.6875-21.214844-21.207031-11.691406 11.6875c-3.515626-1.949219-7.269532-3.511719-11.207032-4.648438v-16.519531zm39.199219 68.570313c0 13.335937-10.855469 24.191406-24.199219 24.191406s-24.199218-10.855469-24.199218-24.191406c0-13.339844 10.855468-24.191407 24.199218-24.191407s24.199219 10.851563 24.199219 24.191407zm0 0" fill="#EEC344"/></svg>
