<?xml version="1.0"?>
<svg xmlns="http://www.w3.org/2000/svg" id="Layer_1" enable-background="new 0 0 496.819 496.819" height="512px" viewBox="0 0 496.819 496.819" width="512px"><path d="m406.374 160.953c64.757-13.818 105.213-80.419 85.378-145.255-1.556-5.084-5.535-9.064-10.619-10.62-64.965-19.872-131.47 20.754-145.261 85.367-7.351-27.596-24.917-51.881-50.008-67.526-4.512-2.814-10.126-3.203-14.983-1.036-36.99 16.498-62.235 50.987-66.966 90.877-5.429-3.769-11.322-7.929-19.73-4.181-36.99 16.497-62.236 50.986-66.967 90.877-5.429-3.769-11.323-7.928-19.729-4.18-81.967 36.555-91.608 148.878-17.569 199.006l-75.216 75.216c-10.109 10.109-2.812 27.314 11.313 27.314 4.095 0 8.189-1.562 11.314-4.687l75.218-75.218c50.237 74.201 162.513 64.255 199.005-17.566 3.774-8.461-.569-14.528-4.18-19.73 39.89-4.731 74.378-29.976 90.876-66.967 3.774-8.461-.569-14.528-4.18-19.73 39.891-4.731 74.379-29.976 90.876-66.967 2.166-4.856 1.778-10.47-1.035-14.982-15.647-25.093-39.937-42.664-67.537-50.012zm56.896-127.393c11.065 57.084-39.176 107.486-96.396 96.396-11.064-57.082 39.176-107.492 96.396-96.396zm-187.158 21.532c45.822 35.782 41.045 106.785-9.402 136-8.436-6.588-15.386-14.659-20.606-23.698-1.897-5.197-4.168-10.244-6.794-15.103-12.179-36.559 2.606-77.395 36.802-97.199zm-86.697 86.697c8.437 6.588 15.388 14.661 20.608 23.701 1.897 5.196 4.167 10.241 6.792 15.099 12.181 36.564-2.612 77.399-36.802 97.2-8.437-6.588-15.388-14.661-20.608-23.7-1.897-5.196-4.167-10.241-6.793-15.099-12.18-36.565 2.613-77.401 36.803-97.201zm-86.696 86.696c8.437 6.588 15.387 14.66 20.607 23.699 1.897 5.197 4.167 10.242 6.794 15.101 12.18 36.565-2.612 77.399-36.803 97.199-45.829-35.787-41.036-106.79 9.402-135.999zm29.626 175.028c19.716-34.046 60.463-49.033 97.182-36.81 4.89 2.644 9.965 4.94 15.198 6.845 9.007 5.216 17.052 12.151 23.621 20.563-29.138 50.311-100.122 55.347-136.001 9.402zm125.464-59.311c-4.838-2.613-9.862-4.873-15.035-6.763-9.053-5.221-17.137-12.177-23.733-20.623 19.747-34.099 60.521-49.018 97.191-36.805 4.884 2.64 9.953 4.933 15.178 6.837 9.011 5.216 17.059 12.153 23.63 20.567-19.799 34.19-60.637 48.996-97.231 36.787zm86.723-86.686c-4.856-2.624-9.899-4.893-15.092-6.789-9.04-5.22-17.113-12.17-23.702-20.607 29.139-50.316 100.126-55.341 136-9.401-19.788 34.167-60.608 48.991-97.206 36.797z" fill="#46866C"/></svg>
